<svg width="60" height="60" viewBox="0 0 60 60" fill="none" xmlns="http://www.w3.org/2000/svg">
<path d="M53.8776 0H6.12245C2.74111 0 0 2.74111 0 6.12245V53.8776C0 57.2589 2.74111 60 6.12245 60H53.8776C57.2589 60 60 57.2589 60 53.8776V6.12245C60 2.74111 57.2589 0 53.8776 0Z" fill="#FF5722"/>
<path fill-rule="evenodd" clip-rule="evenodd" d="M22.839 22.3157C27.876 17.1061 30.2078 11.0705 28.0473 8.83558C25.8858 6.59775 20.0484 9.00988 15.0127 14.2204C9.97666 19.4304 7.64484 25.4675 9.80723 27.7024C11.9678 29.9378 17.8038 27.5257 22.839 22.3157Z" fill="#EEEEEE"/>
<path fill-rule="evenodd" clip-rule="evenodd" d="M44.9912 45.2323C50.0278 40.0228 52.3596 33.9862 50.1986 31.7513C48.0372 29.5149 42.2039 31.9265 37.1664 37.1375C32.1298 42.3475 29.7985 48.3831 31.9585 50.6176C34.1205 52.8544 39.9565 50.4443 44.9912 45.2323Z" fill="#EEEEEE"/>
<path fill-rule="evenodd" clip-rule="evenodd" d="M22.839 37.138C17.8038 31.927 11.9678 29.5149 9.80723 31.7512C7.64484 33.9862 9.97666 40.0237 15.0127 45.2323C20.0493 50.4442 25.8858 52.8544 28.0473 50.6181C30.2097 48.3817 27.876 42.348 22.839 37.138Z" fill="#EEEEEE"/>
<path fill-rule="evenodd" clip-rule="evenodd" d="M44.9912 14.2209C39.9566 9.01036 34.1205 6.59775 31.9581 8.83558C29.7985 11.0705 32.1294 17.1061 37.1659 22.3152C42.2039 27.5257 48.039 29.9378 50.1986 27.7024C52.3605 25.4665 50.0297 19.4304 44.9912 14.2209Z" fill="#EEEEEE"/>
<path d="M30.0034 12.6348C30.0034 22.0747 22.6042 29.7268 13.4805 29.7268C22.6061 29.7268 30.0034 37.3789 30.0034 46.8174C30.0034 37.3789 37.4002 29.7268 46.5245 29.7268C37.4007 29.7268 30.0034 22.0747 30.0034 12.6348Z" fill="#EEEEEE"/>
</svg>