<?xml version="1.0" encoding="UTF-8" standalone="no" ?>
<!DOCTYPE svg PUBLIC "-//W3C//DTD SVG 1.1//EN" "http://www.w3.org/Graphics/SVG/1.1/DTD/svg11.dtd">
<svg xmlns="http://www.w3.org/2000/svg" xmlns:xlink="http://www.w3.org/1999/xlink" version="1.1" width="1080" height="1080" viewBox="0 0 1080 1080" xml:space="preserve">
<desc>Created with Fabric.js 5.2.4</desc>
<defs>
</defs>
<g transform="matrix(1 0 0 1 540 540)" id="6992f7e8-1fd0-4e58-ac6c-f959ddc29139"  >
</g>
<g transform="matrix(1 0 0 1 540 540)" id="9ea133cd-5c93-4097-b95d-951868c938d0"  >
<rect style="stroke: none; stroke-width: 1; stroke-dasharray: none; stroke-linecap: butt; stroke-dashoffset: 0; stroke-linejoin: miter; stroke-miterlimit: 4; fill: rgb(255,255,255); fill-rule: nonzero; opacity: 1; visibility: hidden;" vector-effect="non-scaling-stroke"  x="-540" y="-540" rx="0" ry="0" width="1080" height="1080" />
</g>
<g transform="matrix(0 0 0 0 0 0)"  >
<g style=""   >
</g>
</g>
<g transform="matrix(1.13 0 0 1.14 272.11 419.45)"  >
<rect style="stroke: none; stroke-width: 1; stroke-dasharray: none; stroke-linecap: butt; stroke-dashoffset: 0; stroke-linejoin: miter; stroke-miterlimit: 4; fill: rgb(255,87,34); fill-rule: nonzero; opacity: 1;" vector-effect="non-scaling-stroke"  x="-49" y="-49" rx="10" ry="10" width="98" height="98" />
</g>
<g transform="matrix(0.73 0 0 0.74 254.87 402.05)"  >
<path style="stroke: none; stroke-width: 1; stroke-dasharray: none; stroke-linecap: butt; stroke-dashoffset: 0; stroke-linejoin: miter; stroke-miterlimit: 4; fill: rgb(238,238,238); fill-rule: evenodd; opacity: 1;" vector-effect="non-scaling-stroke"  transform=" translate(-26.27, -26.27)" d="M 34.651 34.651 C 45.443 23.861 50.439 11.36 45.81 6.731 C 41.179 2.096 28.672 7.092 17.883000000000003 17.884 C 7.093 28.675 2.097 41.179 6.73 45.808 C 11.359 50.438 23.863 45.442 34.651 34.651 z" stroke-linecap="round" />
</g>
<g transform="matrix(0.73 0 0 0.74 289.62 437)"  >
<path style="stroke: none; stroke-width: 1; stroke-dasharray: none; stroke-linecap: butt; stroke-dashoffset: 0; stroke-linejoin: miter; stroke-miterlimit: 4; fill: rgb(238,238,238); fill-rule: evenodd; opacity: 1;" vector-effect="non-scaling-stroke"  transform=" translate(-73.73, -73.73)" d="M 82.113 82.116 C 92.904 71.326 97.9 58.823 93.27 54.194 C 88.639 49.562000000000005 76.14099999999999 54.557 65.348 65.35000000000001 C 54.557 76.141 49.562 88.64200000000001 54.19 93.27000000000001 C 58.822 97.903 71.326 92.911 82.113 82.116 z" stroke-linecap="round" />
</g>
<g transform="matrix(0.73 0 0 0.74 254.87 437)"  >
<path style="stroke: none; stroke-width: 1; stroke-dasharray: none; stroke-linecap: butt; stroke-dashoffset: 0; stroke-linejoin: miter; stroke-miterlimit: 4; fill: rgb(238,238,238); fill-rule: evenodd; opacity: 1;" vector-effect="non-scaling-stroke"  transform=" translate(-26.27, -73.73)" d="M 34.651 65.351 C 23.863 54.558 11.359 49.562 6.73 54.194 C 2.0970000000000004 58.823 7.093 71.328 17.883000000000003 82.116 C 28.674 92.911 41.179 97.903 45.81 93.271 C 50.443 88.639 45.443 76.142 34.651 65.351 z" stroke-linecap="round" />
</g>
<g transform="matrix(0.73 0 0 0.74 289.62 402.05)"  >
<path style="stroke: none; stroke-width: 1; stroke-dasharray: none; stroke-linecap: butt; stroke-dashoffset: 0; stroke-linejoin: miter; stroke-miterlimit: 4; fill: rgb(238,238,238); fill-rule: evenodd; opacity: 1;" vector-effect="non-scaling-stroke"  transform=" translate(-73.73, -26.27)" d="M 82.113 17.885 C 71.326 7.093 58.822 2.096 54.189 6.731 C 49.562 11.36 54.556 23.860999999999997 65.347 34.65 C 76.141 45.442 88.643 50.438 93.27 45.808 C 97.902 41.177 92.908 28.675 82.113 17.885 z" stroke-linecap="round" />
</g>
<g transform="matrix(0.73 0 0 0.74 272.2 419.58)"  >
<path style="stroke: none; stroke-width: 1; stroke-dasharray: none; stroke-linecap: butt; stroke-dashoffset: 0; stroke-linejoin: miter; stroke-miterlimit: 4; fill: rgb(238,238,238); fill-rule: nonzero; opacity: 1;" vector-effect="non-scaling-stroke"  transform=" translate(-50, -50)" d="M 50.001 14.6 C 50.001 34.152 34.147999999999996 50.001000000000005 14.599999999999994 50.001000000000005 C 34.151999999999994 50.001000000000005 50.001 65.85000000000001 50.001 85.399 C 50.001 65.85 65.849 50.001 85.398 50.001 C 65.85 50.001 50.001 34.152 50.001 14.6 z" stroke-linecap="round" />
</g>
</svg>